<?xml version="1.0" encoding="UTF-8" standalone="no"?>
<!DOCTYPE svg PUBLIC "-//W3C//DTD SVG 1.1//EN" "http://www.w3.org/Graphics/SVG/1.1/DTD/svg11.dtd">
<svg width="100%" height="100%" viewBox="0 0 299 482" version="1.1" xmlns="http://www.w3.org/2000/svg" xmlns:xlink="http://www.w3.org/1999/xlink" xml:space="preserve" xmlns:serif="http://www.serif.com/" style="fill-rule:evenodd;clip-rule:evenodd;stroke-linejoin:round;stroke-miterlimit:2;">
    <g transform="matrix(4.16667,0,0,4.16667,-128.683,-130.85)">
        <path d="M48.168,35.776C49.48,38.531 51.941,40.272 54.562,41.677C61.062,45.161 69.077,47.309 72.126,54.601C74.605,60.521 73.055,67.264 70.278,72.809C69.482,74.396 68.154,76.418 66.28,76.704C68.859,71.974 67.34,66.232 62.98,62.968C57.035,58.511 51.277,55.244 47.297,48.814C44.09,43.64 40.889,35.036 47.338,31.404C47.188,32.94 47.515,34.397 48.168,35.776Z" style="fill:white;fill-rule:nonzero;"/>
    </g>
    <g transform="matrix(4.16667,0,0,4.16667,-128.683,-130.85)">
        <path d="M76.254,54.414C75.491,51.871 74.486,49.457 74.213,46.783C73.91,43.816 75.148,40.766 77.833,39.349C78.065,41.173 77.73,42.959 78.649,44.645C80.569,48.171 83.344,50.679 85.225,54.237C87.482,58.493 87.182,63.8 83.533,66.993C79.65,70.387 74.84,72.486 72.032,76.869C70.802,74.587 71.622,72.052 72.593,69.916C74.788,65.091 77.94,60.051 76.254,54.414Z" style="fill:white;fill-rule:nonzero;"/>
    </g>
    <g transform="matrix(4.16667,0,0,4.16667,-128.683,-130.85)">
        <path d="M57.411,63.124C60.086,64.218 62.604,65.529 64.431,67.926C66.269,70.336 66.429,73.333 65.651,76.114C64.144,74.455 62.674,72.728 60.484,71.988C57.732,71.061 54.996,70.57 52.479,69.116C50.029,67.708 48.28,65.718 46.824,63.239C45.048,60.213 44.293,55.865 47.174,53.404C46.727,55.773 46.931,58.661 49.089,59.975C51.661,61.543 54.632,61.991 57.411,63.124Z" style="fill:white;fill-rule:nonzero;"/>
    </g>
    <g transform="matrix(4.16667,0,0,4.16667,-128.683,-130.85)">
        <path d="M67.499,77.948C72.099,77.948 76.636,77.966 81.247,77.964C81.254,79.979 81.219,81.798 81.247,83.906C76.546,85.519 71.55,87.205 66.939,89.049C61.913,86.954 56.486,85.597 51.46,83.503C51.437,81.539 51.486,80.02 51.46,77.964C56.938,77.964 62.429,77.948 67.499,77.948Z" style="fill:white;fill-rule:nonzero;"/>
    </g>
    <g transform="matrix(4.16667,0,0,4.16667,-128.683,-130.85)">
        <path d="M47.681,89.546C49.482,89.546 50.726,89.546 52.339,89.536C49.854,95.253 48.9,101.544 48.493,107.695C47.977,115.459 47.439,123.448 49.78,131.003C50.57,133.562 53.968,135.207 56.531,133.24C58.398,131.807 59.047,129.753 59.105,127.634C59.446,115.089 59.946,102.457 60.01,89.688C64.837,89.674 69.03,89.723 73.945,89.688C74.26,102.473 74.128,115.381 74.544,128.228C74.622,130.562 76.135,133.235 78.349,133.848C82.03,134.878 84.833,130.824 85.079,127.489C86.01,114.83 85.764,101.546 81.005,89.594C88.681,89.594 95.317,89.639 102.472,89.594C99.909,108.569 96.606,127.837 93.935,146.795C87.443,144.312 81.103,141.29 74.067,140.544C62.394,139.31 50.563,141.489 40.248,147.019C36.57,127.948 34.019,108.69 30.884,89.536C36.558,89.524 42.217,89.546 47.681,89.546Z" style="fill:white;fill-rule:nonzero;"/>
    </g>
</svg>
